<svg width="239" height="59" viewBox="0 0 239 59" fill="none" xmlns="http://www.w3.org/2000/svg">
<path fill-rule="evenodd" clip-rule="evenodd" d="M18.1519 0H239V45L224.882 59H0V18L18.1519 0Z" fill="#FFC800"/>
<path d="M17.517 20.5455H21.1989V31.5227H21.3438L28.8864 20.5455H32.1165V38H28.4261V27.0142H28.2983L20.7131 38H17.517V20.5455ZM46.7479 20.5455V23.5881H38.8558V38H35.1655V20.5455H46.7479ZM49.1108 38V20.5455H55.9972C57.321 20.5455 58.4489 20.7983 59.3807 21.304C60.3125 21.804 61.0227 22.5 61.5114 23.392C62.0057 24.2784 62.2528 25.3011 62.2528 26.4602C62.2528 27.6193 62.0028 28.642 61.5028 29.5284C61.0028 30.4148 60.2784 31.1051 59.3295 31.5994C58.3864 32.0937 57.2443 32.3409 55.9034 32.3409H51.5142V29.3835H55.3068C56.017 29.3835 56.6023 29.2614 57.0625 29.017C57.5284 28.767 57.875 28.4233 58.1023 27.9858C58.3352 27.5426 58.4517 27.0341 58.4517 26.4602C58.4517 25.8807 58.3352 25.375 58.1023 24.9432C57.875 24.5057 57.5284 24.1676 57.0625 23.929C56.5966 23.6847 56.0057 23.5625 55.2898 23.5625H52.8011V38H49.1108ZM65.6428 38H61.6882L67.7138 20.5455H72.4695L78.4865 38H74.532L70.1598 24.5341H70.0234L65.6428 38ZM65.3956 31.1392H74.7365V34.0199H65.3956V31.1392ZM77.7898 23.5881V20.5455H92.125V23.5881H86.7812V38H83.1335V23.5881H77.7898ZM96.9148 26.9972H101.074C102.46 26.9972 103.653 27.2216 104.653 27.6705C105.659 28.1136 106.435 28.7415 106.98 29.554C107.526 30.3665 107.795 31.3239 107.79 32.4261C107.795 33.5227 107.526 34.4915 106.98 35.3324C106.435 36.1676 105.659 36.821 104.653 37.2926C103.653 37.7642 102.46 38 101.074 38H94.554V20.5455H98.2358V35.0341H101.074C101.739 35.0341 102.298 34.9148 102.753 34.6761C103.207 34.4318 103.551 34.1108 103.784 33.7131C104.023 33.3097 104.139 32.8693 104.134 32.392C104.139 31.6989 103.878 31.1136 103.349 30.6364C102.827 30.1534 102.068 29.9119 101.074 29.9119H96.9148V26.9972ZM116.283 38V20.5455H128.044V23.5881H119.973V27.7472H127.439V30.7898H119.973V34.9574H128.078V38H116.283ZM154.305 35.1449L154.066 42.108H150.717V38H149.293V35.1449H154.305ZM131.677 20.5455H135.282V35.0341H140.293V20.5455H143.881V35.0341H148.833V20.5455H152.421V38H131.677V20.5455ZM156.548 38V20.5455H168.31V23.5881H160.239V27.7472H167.705V30.7898H160.239V34.9574H168.344V38H156.548ZM176.798 38V20.5455H183.685C185.009 20.5455 186.136 20.7983 187.068 21.304C188 21.804 188.71 22.5 189.199 23.392C189.693 24.2784 189.94 25.3011 189.94 26.4602C189.94 27.6193 189.69 28.642 189.19 29.5284C188.69 30.4148 187.966 31.1051 187.017 31.5994C186.074 32.0937 184.932 32.3409 183.591 32.3409H179.202V29.3835H182.994C183.705 29.3835 184.29 29.2614 184.75 29.017C185.216 28.767 185.563 28.4233 185.79 27.9858C186.023 27.5426 186.139 27.0341 186.139 26.4602C186.139 25.8807 186.023 25.375 185.79 24.9432C185.563 24.5057 185.216 24.1676 184.75 23.929C184.284 23.6847 183.693 23.5625 182.977 23.5625H180.489V38H176.798ZM193.33 38H189.376L195.401 20.5455H200.157L206.174 38H202.219L197.847 24.5341H197.711L193.33 38ZM193.083 31.1392H202.424V34.0199H193.083V31.1392ZM214.624 38.2386C213.352 38.2386 212.218 38.0199 211.224 37.5824C210.235 37.1392 209.454 36.5312 208.88 35.7585C208.312 34.9801 208.019 34.0824 208.002 33.0653H211.718C211.741 33.4915 211.88 33.8665 212.136 34.1903C212.397 34.5085 212.744 34.7557 213.175 34.9318C213.607 35.108 214.093 35.196 214.633 35.196C215.195 35.196 215.692 35.0966 216.124 34.8977C216.556 34.6989 216.894 34.4233 217.138 34.071C217.383 33.7187 217.505 33.3125 217.505 32.8523C217.505 32.3864 217.374 31.9744 217.113 31.6165C216.857 31.2528 216.488 30.9687 216.005 30.7642C215.528 30.5597 214.96 30.4574 214.3 30.4574H212.673V27.7472H214.3C214.857 27.7472 215.349 27.6506 215.775 27.4574C216.207 27.2642 216.542 26.9972 216.781 26.6562C217.019 26.3097 217.138 25.9062 217.138 25.446C217.138 25.0085 217.033 24.625 216.823 24.2955C216.619 23.9602 216.329 23.6989 215.954 23.5114C215.585 23.3239 215.153 23.2301 214.658 23.2301C214.158 23.2301 213.701 23.321 213.286 23.5028C212.871 23.679 212.539 23.9318 212.289 24.2614C212.039 24.5909 211.906 24.9773 211.888 25.4205H208.352C208.369 24.4148 208.656 23.5284 209.212 22.7614C209.769 21.9943 210.519 21.3949 211.462 20.9631C212.411 20.5256 213.482 20.3068 214.675 20.3068C215.88 20.3068 216.934 20.5256 217.837 20.9631C218.741 21.4006 219.442 21.9915 219.942 22.7358C220.448 23.4744 220.698 24.304 220.692 25.2244C220.698 26.2017 220.394 27.017 219.781 27.6705C219.173 28.3239 218.38 28.7386 217.403 28.9148V29.0511C218.687 29.2159 219.664 29.6619 220.335 30.3892C221.011 31.1108 221.346 32.0142 221.34 33.0994C221.346 34.0938 221.059 34.9773 220.479 35.75C219.906 36.5227 219.113 37.1307 218.102 37.5739C217.09 38.017 215.931 38.2386 214.624 38.2386Z" fill="black"/>
</svg>
